<?xml version="1.0" standalone="no"?>
<!DOCTYPE svg PUBLIC "-//W3C//DTD SVG 20010904//EN"
 "http://www.w3.org/TR/2001/REC-SVG-20010904/DTD/svg10.dtd">
<svg version="1.0" xmlns="http://www.w3.org/2000/svg"
 width="239.000000pt" height="239.000000pt" viewBox="0 0 239.000000 239.000000"
 preserveAspectRatio="xMidYMid meet">
<metadata>
Created by potrace 1.11, written by Peter Selinger 2001-2013
</metadata>
<g transform="translate(0.000000,239.000000) scale(0.100000,-0.100000)"
fill="#000000" stroke="none">
<path d="M30 1190 l0 -1030 1165 0 1165 0 0 1030 0 1030 -1165 0 -1165 0 0
-1030z m2310 0 l0 -1010 -1145 0 -1145 0 0 1010 0 1010 1145 0 1145 0 0 -1010z"/>
<path d="M1031 2129 c-298 -29 -639 -169 -775 -319 -42 -47 -86 -132 -86 -168
0 -116 190 -211 508 -253 50 -6 92 -16 92 -20 0 -5 9 -9 20 -9 22 0 25 -17 9
-53 -9 -21 -7 -29 12 -51 12 -14 27 -26 33 -26 22 -1 78 -58 75 -76 -2 -11 11
-39 29 -63 38 -53 40 -75 7 -97 -23 -15 -27 -15 -64 3 -31 16 -44 17 -60 9
-19 -11 -18 -13 25 -39 24 -15 49 -27 54 -27 32 0 10 -40 -55 -102 -33 -31
-29 -2 6 47 18 25 29 48 25 52 -8 8 -55 -46 -56 -63 0 -14 -29 -39 -36 -31 -7
7 21 60 40 76 9 8 16 20 16 28 0 11 -9 6 -28 -13 -15 -16 -26 -34 -24 -41 2
-6 -6 -17 -19 -23 -19 -11 -21 -10 -16 4 6 14 3 15 -15 5 -18 -10 -20 -9 -15
5 4 9 2 16 -4 16 -6 0 -7 5 -4 10 11 18 -4 11 -26 -12 -12 -13 -18 -17 -14 -9
5 9 3 12 -6 9 -8 -3 -21 1 -30 8 -17 15 -35 18 -91 16 -33 -2 -38 -5 -38 -26
0 -14 -11 -37 -25 -52 -34 -36 -33 -79 3 -112 25 -24 33 -26 102 -23 41 1 79
7 84 12 6 5 29 9 52 9 50 0 74 -21 56 -50 -15 -25 -6 -30 48 -30 40 0 46 3 45
20 -1 11 -5 23 -10 27 -4 5 -5 2 -1 -4 4 -7 2 -13 -3 -13 -6 0 -11 9 -11 21 0
25 21 21 34 -8 12 -25 43 -46 57 -37 6 4 4 13 -6 24 -9 10 -14 23 -10 29 3 6
0 9 -7 6 -16 -6 -65 41 -55 52 4 3 18 -3 30 -15 13 -12 26 -20 29 -17 3 3 13
-6 22 -20 9 -14 23 -25 31 -25 19 0 19 9 -2 32 -29 32 -4 33 57 0 33 -17 59
-26 57 -20 -2 13 4 15 50 17 26 1 26 2 7 16 -21 16 -25 14 45 19 8 1 16 7 19
14 2 8 -3 10 -15 6 -13 -4 -14 -3 -5 3 10 8 10 12 -1 22 -12 9 -16 7 -21 -13
-9 -35 -43 -39 -82 -9 -36 27 -41 38 -22 49 6 4 20 -3 32 -17 12 -13 33 -25
46 -27 21 -2 16 5 -30 47 -58 53 -90 69 -90 45 0 -8 7 -17 15 -20 16 -6 21
-34 7 -34 -15 0 -44 38 -37 49 9 15 -8 14 -23 -1 -7 -7 -12 -8 -12 -2 0 5 5
15 12 22 9 9 8 12 -5 12 -10 0 -20 -7 -23 -15 -4 -8 -12 -15 -20 -15 -7 0 -20
-13 -28 -28 -18 -34 -42 -56 -50 -44 -2 4 6 21 20 37 13 15 24 31 24 35 0 13
42 50 51 45 5 -4 9 -2 9 3 0 12 49 34 61 26 5 -3 8 -13 7 -22 -2 -11 3 -16 16
-15 21 1 46 -19 46 -37 0 -6 14 -16 30 -21 17 -6 30 -18 30 -26 0 -9 6 -13 14
-10 8 3 22 -3 32 -14 18 -20 81 -28 68 -8 -4 7 -2 10 5 8 20 -7 14 -24 -9 -27
-11 -2 -18 -8 -14 -13 9 -16 -16 -39 -45 -40 l-26 0 24 -10 c19 -8 29 -5 46
11 12 11 25 20 31 20 5 0 -3 -11 -18 -25 -18 -17 -25 -31 -21 -46 5 -18 7 -19
15 -5 5 9 19 16 32 16 28 0 54 25 34 33 -7 3 -3 6 10 6 12 1 22 -2 22 -6 0 -7
114 -9 130 -3 3 1 41 1 85 0 54 -1 85 -7 97 -17 12 -10 18 -11 23 -3 4 7 23
18 42 26 18 8 31 19 28 23 -3 5 1 12 7 14 7 3 0 6 -15 6 -20 1 -30 7 -34 21
-3 11 -9 18 -13 15 -5 -3 -12 0 -16 6 -4 8 -3 9 4 5 7 -4 12 -2 12 3 0 18 17
13 49 -15 17 -14 35 -23 40 -20 5 3 11 -1 15 -9 3 -8 10 -15 15 -15 6 0 7 8 4
17 -6 15 -5 16 9 3 13 -13 14 -16 2 -23 -18 -11 -18 -33 1 -41 8 -3 15 -1 15
5 0 8 16 9 48 4 64 -10 84 -22 77 -46 -6 -18 -1 -19 69 -19 42 0 76 3 76 6 0
15 -22 44 -35 44 -8 0 -26 12 -41 26 -14 15 -19 24 -10 21 22 -9 20 -2 -6 25
-13 13 -31 34 -41 48 -13 19 -12 14 4 -19 19 -41 19 -42 1 -30 -68 49 -81 67
-88 120 -9 71 -42 105 -86 90 -33 -12 -52 -5 -82 28 -10 11 -31 23 -48 26 -16
4 -48 18 -71 31 -45 25 -107 31 -152 14 -18 -7 -24 -7 -20 1 5 7 -5 8 -29 4
-20 -4 -36 -5 -36 -2 0 18 25 57 36 57 8 0 11 6 8 15 -7 17 37 38 60 29 8 -3
17 0 22 7 5 8 3 10 -6 4 -10 -6 -11 -4 -5 11 5 10 8 33 8 49 -1 17 1 24 4 18
3 -10 9 -9 20 3 12 11 13 18 5 23 -8 5 -3 16 16 34 24 23 39 27 134 36 262 25
371 58 463 139 52 46 64 68 65 118 1 105 -111 237 -282 332 -117 64 -200 96
-353 132 -185 45 -365 57 -554 39z m284 -515 c65 -8 115 -29 115 -48 0 -24
-16 -27 -35 -6 -22 24 -44 25 -91 5 -19 -8 -36 -13 -39 -12 -7 3 -34 -37 -35
-50 0 -7 8 -13 18 -13 10 0 28 -8 41 -17 24 -17 84 -26 75 -12 -2 4 0 10 6 14
23 14 9 35 -30 41 -41 7 -46 24 -7 24 43 -1 57 -23 61 -92 2 -36 9 -76 17 -89
7 -13 13 -49 14 -79 0 -30 -1 -48 -3 -38 -4 19 -29 31 -37 18 -13 -21 -35 -10
-35 18 0 29 -58 157 -67 149 -2 -3 3 -19 12 -37 20 -38 14 -48 -16 -26 -16 11
-27 12 -40 5 -24 -12 -66 -2 -73 18 -6 13 -3 13 19 -1 28 -19 34 -10 8 10 -26
19 -42 17 -65 -8 -10 -13 -17 -16 -14 -8 3 8 9 23 12 33 4 10 16 17 30 17 25
0 33 15 12 23 -16 5 8 37 28 37 7 0 16 4 19 10 7 11 -7 41 -21 43 -5 1 -8 5
-7 9 2 4 -15 13 -38 19 -27 9 -39 17 -37 28 4 17 36 22 55 8 9 -6 15 -3 19 8
5 12 15 15 43 11 20 -3 59 -8 86 -12z m-188 -79 c2 -7 -12 -9 -37 -7 -22 2
-37 8 -34 14 8 12 66 6 71 -7z m-10 -31 c-4 -4 -16 -12 -28 -18 -12 -6 -29
-22 -38 -35 l-15 -24 31 17 c33 17 56 5 34 -17 -6 -6 -11 -20 -11 -30 0 -11
-11 -32 -25 -49 -14 -16 -25 -40 -25 -53 0 -13 -5 -27 -12 -31 -8 -5 -9 5 -4
37 9 54 9 65 3 108 -5 29 -1 38 21 58 15 13 23 23 17 24 -13 1 26 17 44 18 8
1 11 -2 8 -5z m233 -14 c22 -13 5 -23 -27 -16 -21 6 -24 9 -12 17 18 11 20 11
39 -1z m-210 -34 c0 -3 -4 -8 -10 -11 -5 -3 -10 -1 -10 4 0 6 5 11 10 11 6 0
10 -2 10 -4z m295 -16 c3 -5 1 -10 -4 -10 -6 0 -11 5 -11 10 0 6 2 10 4 10 3
0 8 -4 11 -10z m41 -157 c-11 -11 -19 6 -11 24 8 17 8 17 12 0 3 -10 2 -21 -1
-24z m-195 -4 c14 -23 11 -29 -16 -29 -22 0 -24 -3 -15 -19 5 -11 7 -26 5 -34
-3 -7 1 -20 10 -27 13 -10 15 -9 15 8 0 12 5 24 10 27 6 4 10 -8 10 -29 0 -38
-28 -96 -47 -96 -7 0 -13 -5 -13 -11 0 -5 -6 -7 -12 -3 -7 5 -19 9 -28 10
-108 16 -134 41 -124 118 7 51 24 62 24 16 0 -38 18 -40 22 -2 3 23 8 27 35
28 48 0 53 14 5 14 -43 0 -58 11 -48 37 5 13 19 15 82 11 50 -3 79 -10 85 -19z
m-294 -21 c-3 -8 -6 -5 -6 6 -1 11 2 17 5 13 3 -3 4 -12 1 -19z m417 -58 c-6
-6 -10 -2 -11 12 -2 16 1 18 10 9 7 -7 8 -14 1 -21z m-42 -142 c-7 -7 -12 -8
-12 -2 0 14 12 26 19 19 2 -3 -1 -11 -7 -17z m136 -49 c12 -8 22 -17 22 -22 0
-4 -5 -5 -12 -1 -7 4 -21 9 -33 10 -11 1 -33 8 -50 15 -23 9 -26 13 -12 16 9
3 17 9 17 15 0 6 10 4 23 -4 12 -8 32 -21 45 -29z m-360 8 c6 -5 12 -6 12 -2
0 4 6 2 14 -4 11 -9 15 -9 19 1 4 10 8 10 16 -2 9 -13 11 -13 11 1 0 13 8 17
33 15 37 -1 49 -13 37 -37 -6 -11 -18 -15 -35 -12 -16 4 -25 1 -25 -7 0 -9 -8
-7 -22 6 -21 18 -22 18 -8 0 13 -17 13 -18 -5 -14 -11 2 -19 9 -18 14 1 5 -14
8 -33 6 -21 -3 -34 0 -34 7 0 6 -7 11 -16 11 -13 0 -14 3 -5 13 6 8 8 16 5 20
-10 9 40 -5 54 -16z m282 -88 c0 -4 -7 -6 -15 -3 -8 4 -15 10 -15 15 0 4 7 6
15 3 8 -4 15 -10 15 -15z m-236 -28 c-5 -6 -34 20 -34 30 0 5 8 1 18 -8 10
-10 17 -20 16 -22z m-35 -26 c-8 -8 -50 35 -44 45 4 6 15 0 27 -15 11 -14 19
-28 17 -30z m231 33 c0 -6 -6 -5 -15 2 -8 7 -15 14 -15 16 0 2 7 1 15 -2 8 -4
15 -11 15 -16z m77 6 c-3 -3 -12 -4 -19 -1 -8 3 -5 6 6 6 11 1 17 -2 13 -5z
m-145 -48 c39 -30 45 -46 10 -27 -23 12 -36 3 -21 -16 20 -24 -5 -13 -56 24
-29 21 -44 38 -37 41 8 2 24 -5 36 -17 12 -12 31 -21 42 -21 16 1 15 4 -8 21
-16 11 -28 25 -28 30 0 12 13 5 62 -35z m29 24 c31 -25 12 -26 -21 0 -14 11
-20 20 -14 20 7 0 22 -9 35 -20z m75 -5 c9 -8 11 -15 6 -15 -5 0 -15 7 -22 15
-7 8 -9 15 -6 15 4 0 14 -7 22 -15z m464 -15 c0 -11 -4 -20 -8 -20 -4 0 -8 9
-9 20 -1 11 2 20 8 20 5 0 9 -9 9 -20z m-685 -10 c14 -5 24 -14 21 -19 -6 -9
22 -26 37 -23 4 1 7 -5 7 -13 0 -8 -4 -15 -10 -15 -5 0 -10 5 -10 10 0 6 -5
10 -10 10 -14 0 -70 42 -70 52 0 10 3 10 35 -2z m-115 -105 c4 3 13 -1 19 -9
8 -10 8 -16 -2 -25 -11 -8 -27 1 -73 44 -32 30 -62 55 -65 55 -16 0 -16 -30
-1 -42 11 -9 14 -9 8 -1 -5 9 -2 11 8 7 21 -8 20 -20 0 -28 -18 -7 -54 19 -54
40 0 7 11 21 25 31 l26 18 51 -47 c28 -26 54 -45 58 -43z m780 64 c0 -5 -6 -9
-14 -9 -15 0 -28 24 -19 34 7 7 33 -13 33 -25z m-520 -9 c0 -5 -4 -10 -10 -10
-5 0 -10 5 -10 10 0 6 5 10 10 10 6 0 10 -4 10 -10z m-496 -91 c-3 -5 -10 -7
-15 -3 -5 3 -7 10 -3 15 3 5 10 7 15 3 5 -3 7 -10 3 -15z"/>
<path d="M1248 1393 c7 -3 16 -2 19 1 4 3 -2 6 -13 5 -11 0 -14 -3 -6 -6z"/>
<path d="M1386 1313 c5 -5 12 -12 16 -18 4 -6 8 -2 8 8 0 9 -7 17 -17 17 -9 0
-12 -3 -7 -7z"/>
<path d="M895 1069 c-19 -22 -19 -22 -1 -15 12 4 26 0 37 -10 24 -22 24 -6 1
24 l-18 23 -19 -22z"/>
<path d="M698 1030 c-14 -32 -19 -90 -8 -90 5 0 10 5 10 11 0 6 8 8 19 4 10
-3 23 1 30 9 7 8 18 13 26 10 20 -8 27 12 9 26 -11 10 -18 10 -26 2 -22 -22
-46 -14 -50 16 -3 18 -6 22 -10 12z"/>
<path d="M811 971 c-2 -22 -31 -50 -47 -44 -11 4 -11 10 -3 26 11 21 11 21 -7
5 -17 -17 -17 -18 1 -36 18 -17 20 -17 43 5 14 13 22 29 19 40 -3 11 -5 12 -6
4z"/>
<path d="M1930 888 c0 -15 5 -30 10 -33 13 -8 13 25 0 45 -8 12 -10 9 -10 -12z"/>
<path d="M425 880 c-12 -13 -19 -35 -18 -58 3 -86 7 -117 17 -124 8 -6 7 -11
-3 -17 -11 -7 -11 -9 0 -14 8 -3 9 -6 3 -6 -6 -1 -17 6 -24 14 -17 21 -30 19
-30 -6 0 -17 5 -20 33 -17 31 3 32 4 30 48 -1 25 -5 68 -9 96 -4 40 -2 58 11
78 21 31 15 34 -10 6z"/>
<path d="M1740 786 c0 -9 5 -16 10 -16 6 0 10 4 10 9 0 6 -4 13 -10 16 -5 3
-10 -1 -10 -9z"/>
<path d="M348 757 c-3 -19 -2 -25 4 -19 6 6 8 18 6 28 -3 14 -5 12 -10 -9z"/>
<path d="M708 689 c-10 -5 -55 -13 -100 -16 l-83 -6 9 -170 c7 -125 6 -175 -3
-188 -10 -18 -7 -19 36 -19 27 0 65 -3 86 -6 l37 -7 0 44 c-1 35 -3 40 -11 27
-7 -13 -23 -18 -59 -18 l-50 0 0 66 0 66 40 -4 c38 -3 40 -2 40 24 0 26 -3 28
-40 28 l-40 0 0 60 0 60 65 0 c62 0 66 -1 76 -27 6 -15 9 -85 7 -160 l-3 -133
62 0 c34 0 68 -3 77 -6 13 -5 16 1 16 26 0 27 -3 31 -17 25 -10 -4 -35 -9 -55
-12 -35 -5 -37 -4 -43 29 -4 19 -5 100 -3 181 3 156 1 163 -44 136z"/>
<path d="M1716 659 c-14 -17 -26 -38 -27 -47 0 -9 -7 -1 -16 18 -20 46 -27 50
-98 50 l-60 0 0 -190 0 -190 32 0 c31 0 32 1 23 26 -6 14 -10 50 -10 80 l0 54
35 0 c21 0 43 8 54 19 18 18 19 18 25 -32 8 -57 29 -113 53 -139 23 -26 75
-23 102 6 67 71 66 293 -1 356 -33 31 -81 26 -112 -11z m107 -46 c30 -65 32
-224 4 -267 -23 -34 -62 -32 -88 4 -41 55 -49 233 -14 287 11 16 25 23 46 23
26 0 33 -6 52 -47z m-185 15 c7 -7 12 -33 12 -58 0 -56 -12 -70 -62 -70 l-38
0 0 70 0 70 38 0 c21 0 43 -5 50 -12z"/>
<path d="M1147 668 c4 -7 10 -77 13 -155 4 -124 8 -145 26 -170 15 -20 31 -29
57 -31 54 -5 74 33 81 157 4 53 8 117 10 142 2 42 1 45 -18 42 -20 -4 -21 -10
-18 -111 4 -133 -10 -186 -50 -190 -50 -6 -60 26 -56 187 l3 141 -28 0 c-20 0
-26 -4 -20 -12z"/>
<path d="M1400 672 c-8 -4 -17 -18 -18 -32 -2 -14 -19 -98 -38 -188 -19 -89
-34 -165 -34 -167 0 -3 9 -5 20 -5 11 0 19 3 18 7 -1 5 1 32 5 61 l8 52 44 0
44 0 7 -47 c5 -27 7 -54 6 -61 -2 -7 8 -12 23 -12 18 0 24 4 18 12 -4 7 -24
93 -43 190 -25 122 -33 181 -26 188 12 12 -10 13 -34 2z m23 -155 c8 -36 12
-69 9 -72 -3 -3 -19 -5 -35 -5 -21 0 -28 4 -24 14 3 8 11 42 18 75 6 34 13 60
15 58 2 -2 10 -33 17 -70z"/>
<path d="M1888 517 c-3 -145 -1 -163 13 -160 8 3 15 12 15 21 -3 57 18 279 26
290 8 9 3 12 -20 12 l-31 0 -3 -163z"/>
<path d="M996 645 c-35 -38 -49 -102 -44 -202 4 -85 24 -147 52 -165 44 -29
110 13 122 78 3 22 11 44 16 51 7 9 -5 19 -45 37 -30 13 -60 32 -66 42 -10 18
-10 18 -11 -1 0 -11 -3 -30 -6 -41 -5 -19 0 -22 40 -28 42 -7 46 -10 46 -34 0
-35 -26 -72 -49 -72 -44 0 -73 68 -73 167 1 86 22 140 60 150 31 7 50 -15 58
-68 6 -35 8 -37 30 -27 15 7 21 15 15 22 -4 6 -11 24 -15 39 -9 39 -49 77 -81
77 -15 0 -36 -11 -49 -25z"/>
<path d="M1870 315 c-18 -21 5 -47 38 -43 33 4 53 35 32 48 -22 14 -56 12 -70
-5z"/>
</g>
</svg>
